<svg width="205" height="204" viewBox="0 0 205 204" fill="none" xmlns="http://www.w3.org/2000/svg">
<path fill-rule="evenodd" clip-rule="evenodd" d="M172.566 0.885412C169.978 1.30731 166.3 2.07015 164.393 2.58042C162.486 3.09011 160.369 3.63915 159.688 3.79992C157.309 4.36208 148.539 7.58277 148.073 8.0651C147.814 8.33306 147.198 8.55197 146.704 8.55197C146.21 8.55197 145.419 8.77886 144.945 9.05652C144.472 9.33418 142.748 10.3131 141.114 11.2316C135.098 14.6119 125.77 21.0977 122.504 24.1718C121.803 24.8315 120.466 25.9974 119.532 26.7637C116.938 28.8908 108.66 38.6315 106.179 42.4748C104.964 44.3562 103.747 46.0843 103.473 46.3146C103.199 46.5449 103.141 46.7371 103.343 46.7422C103.545 46.7468 103.211 47.4093 102.6 48.2143C100.77 50.6237 95.8151 61.7378 95.8037 63.4567C95.7978 64.3353 96.6285 66.8502 97.6499 69.0465C98.6719 71.2418 99.8123 73.7301 100.184 74.5756C100.556 75.4211 101.442 77.2669 102.152 78.6779C102.863 80.0889 103.461 81.372 103.482 81.5289C103.522 81.8281 104.704 84.7946 107.493 91.5937C108.413 93.8372 109.166 95.9059 109.166 96.19C109.166 96.4755 109.597 97.7358 110.124 98.992C110.999 101.077 111.248 102.028 111.931 105.902C112.056 106.608 112.32 107.185 112.519 107.184C112.718 107.184 113.644 105.229 114.577 102.84C116.247 98.5662 116.264 98.4403 115.662 95.0012C115.326 93.079 114.747 90.2233 114.375 88.6554C112.42 80.3992 112.001 64.3313 113.561 57.4464C114.04 55.3335 114.253 53.281 114.036 52.8854C113.431 51.7907 113.578 47.7212 114.259 46.7012C117.14 42.3824 122.539 44.5289 122.539 49.9937C122.539 52.7725 121.64 54.2873 119.413 55.2622C116.976 56.3284 116.408 58.9498 116.376 69.2708C116.35 77.904 116.83 83.1153 118.262 89.7018L118.861 92.4585L120.453 88.8102C121.33 86.8041 122.435 84.666 122.912 84.0585C123.388 83.451 124.359 81.9251 125.069 80.6675C125.779 79.4099 128.651 75.9461 131.452 72.9706C138.849 65.1113 139.981 63.8154 141.619 61.3296C142.431 60.0976 143.485 58.622 143.961 58.0514C144.438 57.4801 144.829 56.7777 144.829 56.4903C144.829 56.203 145.013 55.8826 145.237 55.7777C145.919 55.4612 150.451 47.2918 152.247 43.1418C153.653 39.8938 153.835 39.0671 153.343 38.1606C152.264 36.1726 152.631 33.8578 154.277 32.2632C156.607 30.0071 157.931 29.8441 159.899 31.5722C161.499 32.9764 162.153 34.7267 162.046 37.31C161.998 38.4377 159.855 40.9987 158.931 41.0312C158.218 41.0569 156.989 42.8112 155.109 46.4919C154.222 48.228 153.01 50.5878 152.414 51.7354C151.819 52.8831 151.463 54.0667 151.624 54.3654C151.784 54.6642 151.668 54.7326 151.365 54.5177C151.056 54.297 150.432 54.8198 149.939 55.7121C149.456 56.5844 148.945 57.4265 148.803 57.5833C147.602 58.9037 143.449 65.7943 142.029 68.8208C141.06 70.8875 139.843 73.3731 139.324 74.3452C138.805 75.3173 137.942 77.139 137.407 78.3931C136.872 79.6473 135.985 81.4435 135.434 82.384C134.884 83.3244 134.432 84.311 134.43 84.5758C134.424 85.4936 140.268 84.2724 144.581 82.4535C145.398 82.1095 146.178 81.8027 146.314 81.7738C149.136 81.169 153.527 78.6504 157.27 75.4913C160.472 72.7876 160.692 72.3714 160.847 68.7054C160.961 66.0309 161.202 65.2567 162.194 64.3792C164.184 62.6187 167.385 63.1563 168.959 65.5155C169.291 66.0132 169.57 67.4978 169.578 68.814C169.591 70.8696 169.359 71.4138 167.937 72.6624C167.026 73.4625 165.8 74.1168 165.213 74.1168C164.626 74.1168 163.754 74.566 163.275 75.115C161.039 77.6783 156.134 81.6038 152.877 83.4373C150.902 84.5483 149.286 85.3381 149.286 85.1909C149.286 85.0436 148.785 85.2886 148.172 85.7357C147.073 86.5365 143.942 87.5499 143.219 87.3387C143.014 87.2788 142.847 87.4439 142.847 87.7047C142.847 87.9668 142.569 88.1911 142.228 88.2055C140.956 88.2571 132.902 90.041 132.432 90.3753C132.163 90.5666 131.593 91.5029 131.165 92.4564C130.047 94.9427 126.012 108.194 125.833 109.966C125.749 110.789 125.548 111.845 125.386 112.316C124.274 115.552 121.867 135.716 122.506 136.452C122.766 136.75 123.325 136.443 123.858 135.709C125.596 133.32 132.219 127.337 136.161 124.598C138.34 123.083 140.234 121.683 140.371 121.487C140.507 121.29 142.338 120.163 144.439 118.982C146.54 117.801 148.394 116.584 148.559 116.276C148.724 115.97 149.067 115.866 149.32 116.046C149.574 116.226 149.781 116.102 149.781 115.77C149.781 115.438 150.061 115.167 150.401 115.168C150.741 115.169 153.583 113.732 156.716 111.973C159.849 110.215 163.415 108.26 164.641 107.631C170.175 104.785 171.327 103.919 171.766 102.274C172.006 101.369 172.37 100.115 172.575 99.4881C172.78 98.8606 173.223 97.193 173.557 95.782C173.892 94.371 174.34 92.5748 174.551 91.7912C174.763 91.0069 175.207 88.8267 175.537 86.9452C175.869 85.0636 176.323 82.8828 176.549 82.0992C177.336 79.357 178.397 74.3713 178.973 70.6962C179.294 68.6581 179.744 66.0925 179.974 64.995C180.205 63.8974 180.662 60.8188 180.99 58.1534C181.319 55.488 181.772 52.7942 181.999 52.167C182.225 51.5399 182.527 49.4874 182.671 47.606C183.299 39.3613 183.871 33.6907 184.121 33.2238C184.369 32.7643 184.611 14.1142 184.499 4.13345L184.453 0L180.862 0.0587239C178.887 0.0912215 175.154 0.462947 172.566 0.885412ZM27.1225 19.2339C26.9788 19.8662 26.3785 20.6884 25.7886 21.0612C24.435 21.9158 17.9499 33.2632 14.5277 40.7644C9.7069 51.3312 8.6103 54.1921 6.00154 62.9995C5.44429 64.881 4.60375 67.7031 4.1337 69.2708C1.37186 78.4853 0.0677062 89.4679 0.00480196 104.049C-0.0585977 118.656 0.471382 123.361 3.66663 136.546C4.27437 139.055 5.34672 142.775 6.04953 144.814C7.44981 148.877 11.9834 159.182 12.5698 159.636C12.7724 159.793 13.3346 160.82 13.8195 161.917C14.8032 164.144 15.8091 165.655 20.5631 172.049C24.0328 176.715 26.2943 179.236 29.9042 182.458C31.1236 183.547 32.4208 184.759 32.7879 185.15C33.1544 185.542 33.773 185.863 34.1618 185.863C34.5512 185.863 34.8697 186.064 34.8697 186.309C34.8697 186.553 36.3744 187.644 38.213 188.732C40.052 189.819 41.6306 190.901 41.7213 191.137C41.8124 191.371 42.2691 191.564 42.7366 191.564C43.2042 191.564 43.7986 191.805 44.0577 192.099C44.3162 192.393 45.1968 192.757 46.0141 192.908C46.8314 193.058 47.556 193.234 47.6239 193.299C47.6917 193.364 47.9151 193.453 48.1192 193.497C48.3232 193.541 48.7864 193.793 49.1479 194.057C49.9419 194.636 54.5245 195.384 61.864 196.131C64.8607 196.436 69.0958 196.948 71.2749 197.269C73.4546 197.59 76.2403 197.991 77.4661 198.161C78.6919 198.332 80.1407 198.692 80.6857 198.962C82.1339 199.682 85.3912 200.118 85.3912 199.593C85.3912 199.345 84.778 198.526 84.0291 197.776C82.1464 195.888 75.1119 187.237 73.0087 184.223C72.0548 182.856 71.0489 181.447 70.7728 181.093C69.5494 179.52 67.0649 175.69 67.0649 175.376C67.0649 175.186 66.7117 174.581 66.2802 174.033C65.1135 172.549 61.6166 166.048 61.6166 165.362C61.6166 165.036 61.4319 164.768 61.206 164.768C60.98 164.768 60.273 163.485 59.6351 161.917C58.9972 160.349 58.3166 159.067 58.1225 159.067C57.9283 159.067 57.6529 158.554 57.5103 157.926C57.2839 156.929 56.8347 156.786 53.9188 156.786C50.2861 156.786 44.3132 155.747 43.5623 154.984C43.3033 154.72 42.7713 154.506 42.38 154.506C41.532 154.506 33.6685 150.167 32.7571 149.197C31.0662 147.396 27.9333 144.814 27.44 144.814C27.1354 144.814 27.0106 144.582 27.1626 144.298C27.5103 143.652 24.793 142.533 22.8727 142.533C21.1738 142.533 20.1733 141.531 19.4343 139.09C18.9865 137.611 19.0747 136.93 19.9767 134.911C20.8866 132.875 21.3106 132.48 22.6994 132.372C26.2369 132.097 28.4306 133.981 28.4306 137.292C28.4306 139.274 28.7332 139.861 30.9473 142.18C36.4745 147.971 44.704 152.063 51.2659 152.283C53.1525 152.346 54.8039 152.275 54.9352 152.123C55.0664 151.973 54.2972 149.49 53.2263 146.605C52.1555 143.721 51.2748 141.236 51.2698 141.084C51.2486 140.433 49.4852 134.241 49.247 133.981C49.1034 133.824 48.9746 133.439 48.9602 133.126C48.772 128.963 47.1593 124.498 45.6709 124.017C43.2686 123.24 35.7057 119.119 35.4477 118.447C35.3565 118.21 35.1034 118.017 34.885 118.017C34.1361 118.017 28.602 113.494 27.0591 111.622C23.0927 106.807 21.4725 104.518 21.1941 103.331C21.0139 102.565 20.362 101.893 19.5839 101.672C17.9395 101.205 16.6982 99.6036 16.2792 97.4084C15.2687 92.1124 20.7642 88.9774 24.0219 92.9916C25.5425 94.8657 25.7847 96.4321 24.9451 98.9728C24.5563 100.15 24.6098 100.957 25.1635 102.288C26.0234 104.357 30.4109 109.812 32.8884 111.893C35.1827 113.82 41.7921 117.862 44.3419 118.898L46.3742 119.722L46.0859 113.882C45.9274 110.669 45.5302 106.244 45.2033 104.049C44.4985 99.3168 44.4212 87.9283 45.0007 74.0672C45.4198 64.0406 45.4198 64.0394 44.231 62.0942C43.5772 61.0246 42.8748 60.0633 42.6708 59.959C41.5078 59.3638 43.4073 54.8728 45.3093 53.72C47.6546 52.2987 51.2495 54.2531 51.9167 57.3124C52.2862 59.0069 51.5883 61.1295 50.1569 62.6643C49.1762 63.7162 48.9934 64.6546 48.6749 70.2731C48.1182 80.1048 48.1796 98.5958 48.7814 102.376C49.3391 105.877 53.0009 116.896 53.8118 117.511C54.0644 117.703 54.2244 118.04 54.1669 118.26C54.0441 118.73 58.3835 128.623 59.4251 130.247C60.1152 131.325 60.1857 131.297 61.5801 129.392C63.1705 127.222 67.0649 118.546 67.0649 117.175C67.0649 116.697 67.2418 116.307 67.4582 116.307C67.6739 116.307 68.1395 114.704 68.4921 112.744C68.8447 110.784 69.336 108.436 69.5847 107.528C70.3819 104.611 70.1357 101.193 69.0462 100.058C68.3248 99.3064 68.0552 98.302 68.0552 96.3634C68.0552 91.9171 70.6778 90.1772 74.7957 91.8909C77.6101 93.0625 77.8295 97.3478 75.2374 100.511C74.005 102.014 73.4988 103.162 73.4862 104.478C73.4665 106.606 72.5377 111.518 71.1398 116.887C69.6564 122.586 64.3861 133.669 62.8334 134.355C62.008 134.719 61.8616 136.586 62.6164 137.124C62.8938 137.32 63.6516 138.683 64.2995 140.15C65.4488 142.752 71.3478 153.368 71.9598 153.935C72.1289 154.092 72.5694 154.896 72.9388 155.723C73.3081 156.55 74.3409 158.199 75.2332 159.387L76.8559 161.548L78.0817 160.026C79.5352 158.221 84.0769 147.782 84.824 144.528C85.476 141.69 86.2303 137.283 86.5925 134.199C86.8304 132.168 86.7025 131.709 85.6344 130.786C83.9472 129.328 83.9179 125.792 85.5735 123.576C86.5692 122.243 87.1274 122.008 89.2945 122.008C91.6398 122.008 91.9231 122.157 92.8262 123.861C94.3669 126.769 93.9713 129.59 91.7318 131.678C91.1407 132.228 90.6351 133.73 90.3799 135.693C89.5892 141.768 88.0771 147.549 85.8012 153.199C84.4755 156.489 81.122 162.922 80.1484 164.043C79.1485 165.193 79.2286 165.492 81.3671 168.565C84.5275 173.109 91.9183 181.035 99.1154 187.598C100.478 188.841 100.926 188.172 101.8 183.582C102.069 182.171 102.512 179.862 102.785 178.451C105.947 162.101 105.935 132.044 102.761 116.877C102.465 115.466 102.083 113.413 101.91 112.316C101.568 110.149 99.6599 103.295 97.3864 96.0668C94.3245 86.3336 88.456 74.3768 81.6767 64.0588C76.0699 55.5262 60.2766 37.6509 58.3186 37.6224C58.0892 37.619 57.1962 36.7855 56.3339 35.7695C55.4716 34.7541 53.9114 33.4103 52.8668 32.7837C51.8221 32.1577 50.6898 31.3429 50.3506 30.9741C50.0113 30.6052 48.4511 29.4535 46.8834 28.4142C45.3157 27.3749 43.3642 26.0721 42.5469 25.5191C38.7222 22.9324 30.7938 18.7214 29.18 18.4198C27.6619 18.1364 27.3429 18.2625 27.1225 19.2339ZM168.603 121.984C167.922 122.235 165.805 122.762 163.898 123.155C161.991 123.547 160.026 124.109 159.532 124.403C159.038 124.698 158.169 125.041 157.602 125.167C156.099 125.5 153.08 126.655 152.506 127.115C152.233 127.334 150.952 127.963 149.658 128.514C148.363 129.064 147.305 129.792 147.305 130.132C147.305 130.472 147.161 130.585 146.986 130.382C146.699 130.052 143.74 132.299 140.371 135.405C138.056 137.538 133.12 143.376 130.766 146.764C126.865 152.376 119.568 167.207 119.568 169.524C119.568 169.926 119.122 171.317 118.577 172.616C118.032 173.914 117.586 175.504 117.586 176.15C117.586 176.797 117.386 177.772 117.139 178.317C116.894 178.861 116.463 180.332 116.183 181.587C115.903 182.841 115.306 185.333 114.856 187.125C114.407 188.916 114.171 190.629 114.333 190.93C114.654 191.53 118.664 189.804 123.433 187.015C125.052 186.067 126.609 185.293 126.893 185.293C127.178 185.293 127.484 185.101 127.575 184.865C127.666 184.629 128.52 183.994 129.474 183.453C130.427 182.912 132.099 181.856 133.188 181.108C134.278 180.359 136.284 178.99 137.646 178.065L140.123 176.381L140.461 171.287C140.649 168.486 141.005 165.039 141.255 163.627C141.806 160.509 144.283 153.365 145.173 152.328C145.904 151.475 146.159 150.295 146.484 146.258C146.94 140.591 151.42 139.055 154.886 143.377C155.694 144.384 155.795 146.002 155.255 149.241C155.153 149.852 151.755 151.651 150.7 151.653C149.573 151.654 149.164 152.193 147.773 155.503C146.884 157.619 145.748 160.891 145.248 162.772C144.349 166.16 143.988 172.768 144.704 172.729C144.909 172.719 146.636 171.447 148.543 169.906C150.45 168.363 153.236 166.158 154.734 165.006C156.233 163.853 157.533 162.687 157.623 162.414C157.715 162.141 158.086 161.917 158.449 161.917C158.812 161.917 159.184 161.722 159.275 161.484C159.366 161.245 161.126 159.599 163.186 157.826C165.247 156.053 167.475 153.684 168.139 152.562C168.803 151.441 169.469 150.521 169.62 150.519C169.77 150.516 171.002 149.296 172.355 147.806C175.424 144.43 177.279 142.62 179.5 140.831C180.454 140.063 181.513 139.122 181.856 138.74C182.198 138.359 182.978 137.871 183.589 137.657C185.285 137.062 186.435 135.66 186.435 134.185C186.435 133.273 187.038 132.397 188.361 131.389C190.192 129.994 190.374 129.964 192.037 130.763C194.436 131.917 195.555 134.015 195.182 136.661C194.73 139.868 193.838 140.537 190.008 140.543C186.848 140.547 184.822 141.328 182.625 143.388C182.291 143.702 180.977 144.856 179.707 145.954C176.326 148.873 157.291 171.218 156.777 172.871C156.652 173.273 157.976 173.387 160.797 173.216C164.603 172.986 165.46 172.702 169.778 170.235C173.71 167.989 174.598 167.241 174.815 165.995C175.405 162.607 175.859 161.68 177.42 160.678C178.635 159.897 179.295 159.775 179.988 160.203C180.501 160.518 181.326 160.779 181.82 160.781C182.948 160.787 183.958 163.215 183.958 165.922C183.958 168.784 182.338 170.469 179.587 170.469C178.153 170.469 176.32 171.161 173.675 172.702C165.801 177.285 163.145 178.084 156.741 177.795L152.309 177.596L149.224 180.731C147.528 182.456 145.678 184.389 145.113 185.025C144.548 185.661 142.191 187.958 139.875 190.128C137.56 192.297 135.268 194.532 134.783 195.094C134.298 195.655 132.738 197.109 131.316 198.325C129.894 199.54 128.285 201.116 127.74 201.828L126.75 203.122L128.978 202.777C130.204 202.588 132.879 202.271 134.922 202.073C139.641 201.618 148.049 199.912 150.029 199.008C150.574 198.759 152.58 197.983 154.487 197.284C161.253 194.803 171.581 188.364 176.379 183.636C182.114 177.984 189.406 169.124 189.406 167.809C189.406 167.422 189.717 166.9 190.098 166.65C190.924 166.104 195.843 156.808 195.844 155.789C195.845 155.397 196.012 155.073 196.217 155.071C196.661 155.066 197.826 152.305 197.826 151.256C197.826 150.848 198.049 150.515 198.322 150.515C198.594 150.515 198.817 150.178 198.817 149.766C198.817 149.355 199.263 147.956 199.807 146.658C200.353 145.36 200.798 143.916 200.798 143.449C200.798 142.982 201.021 142.442 201.294 142.248C201.566 142.054 201.789 141.321 201.789 140.618C201.789 139.915 201.973 139.097 202.198 138.798C202.835 137.956 204.633 130.236 204.938 127.037C205.22 124.075 205.1 124.032 191.883 122.291C185.273 121.419 170.657 121.227 168.603 121.984Z" fill="#5DA37B"/>
</svg>
